# xmcd
#
# Track frame offsets:
#	150
#	14211
#	41047
#	52422
#	66578
#	80447
#	103928
#	115907
#	138084
#	157679
#	176391
#	196697
#	213978
#	233742
#	258875
#
# Disc length: 3720 seconds
#
# Revision: 0
# Processed by: cddbd v1.5.2PL0 Copyright (c) Steve Scherf et al.
# Submitted via: audiograbber 1.83.01
#
DISCID=d00e860f
DTITLE=Various Artist - FULL MOON - CD 4 [CDC)
DYEAR=2005
DGENRE=Ballad
TTITLE0=SHIRLEY BASSEY - MOONRAKER
TTITLE1=DIANNA KRALL - EAST OF THE SUN (AND WEST OF THE MOON)
TTITLE2=DORIS DAY - FLY ME TO THE MOON
TTITLE3=ELLA FITZGERALD - BLUE MOON
TTITLE4=TONY BENNETT - I WISHED ON THE MOON
TTITLE5=BOBBY MC FERRIN - MOONDANCE
TTITLE6=MEL TORME - A VELVET MOON
TTITLE7=MANDY MOORE - THE WHOLE OF THE MOON
TTITLE8=RUSTED ROOT - MOON 
TTITLE9=ALL ABOUT EVE - LADY MOONLIGHT
TTITLE10=THE WALKABOUTS - STRAIGHT TO THE STARS
TTITLE11=LIGHTHOUSE FAMILY - ONCE IN A BLUE MOON
TTITLE12=THE ORB - LITTLE FLUFFY CLOUDS
TTITLE13=DAVID SANBORN - NAKED MOON
TTITLE14=OTTMAR LIEBERT - FULLMOONBEACHWALK
EXTD=
EXTT0=
EXTT1=
EXTT2=
EXTT3=
EXTT4=
EXTT5=
EXTT6=
EXTT7=
EXTT8=
EXTT9=
EXTT10=
EXTT11=
EXTT12=
EXTT13=
EXTT14=
PLAYORDER=
